 <svg  version="1.0" xmlns="http://www.w3.org/2000/svg"  width="900.000000pt" height="900.000000pt" viewBox="0 0 900.000000 900.000000"  preserveAspectRatio="xMidYMid meet">  <g transform="translate(0.000000,900.000000) scale(0.100000,-0.100000)" fill="#ffffff" stroke="none"> <path d="M3790 7313 c-32 -7 -69 -36 -92 -74 -13 -21 -18 -50 -18 -102 0 -64 7 -98 42 -202 5 -16 14 -45 18 -64 5 -18 13 -38 19 -44 6 -6 11 -20 11 -32 0 -12 7 -30 15 -41 8 -10 15 -27 15 -36 0 -16 6 -30 44 -106 9 -19 16 -40 16 -49 0 -8 6 -27 14 -41 15 -30 33 -81 46 -127 5 -16 13 -43 18 -60 42 -122 72 -287 72 -395 0 -47 7 -140 15 -205 8 -66 15 -143 15 -171 0 -28 7 -73 15 -100 8 -27 15 -61 15 -76 0 -26 9 -52 53 -148 24 -52 119 -150 146 -150 10 0 36 -7 57 -16 31 -13 60 -15 134 -11 170 10 331 36 425 69 17 6 42 13 57 15 15 3 33 11 39 19 6 8 17 14 23 14 34 0 173 95 229 155 53 57 106 148 137 235 33 91 34 364 3 470 -26 87 -83 202 -135 271 -16 20 -28 42 -28 47 0 6 -6 15 -13 19 -7 4 -35 37 -62 73 -57 75 -296 317 -370 375 -27 21 -54 44 -60 50 -5 6 -59 48 -120 93 -60 45 -114 85 -120 90 -5 4 -17 11 -25 15 -24 12 -53 30 -86 54 -17 12 -42 27 -55 33 -13 6 -37 19 -54 30 -16 11 -37 23 -45 26 -29 12 -85 37 -112 51 -14 7 -33 13 -43 13 -9 0 -28 6 -43 14 -29 15 -170 28 -212 19z m171 -140 c88 -20 313 -132 439 -218 281 -194 528 -424 692 -646 142 -191 178 -293 178 -499 0 -140 -14 -213 -58 -294 -32 -60 -137 -169 -184 -191 -18 -9 -53 -26 -78 -39 -65 -34 -181 -63 -322 -82 -213 -28 -333 -5 -382 75 -53 86 -89 239 -101 431 -27 438 -59 593 -195 945 -114 293 -133 349 -138 417 -4 61 -3 68 21 92 31 31 33 31 128 9z"/> <path d="M4554 6318 c-43 -11 -130 -105 -143 -154 -19 -70 15 -278 60 -370 32 -67 119 -150 171 -165 88 -23 164 9 237 101 65 82 77 159 40 270 -62 189 -246 350 -365 318z m63 -110 c47 -21 91 -58 130 -110 65 -89 75 -116 77 -203 1 -72 -2 -84 -24 -112 -54 -67 -168 -67 -203 0 -31 60 -47 109 -47 142 0 18 -6 50 -14 71 -7 22 -16 73 -20 115 -7 73 -6 78 15 93 28 19 49 20 86 4z"/> <path d="M6440 5793 c-49 -17 -106 -40 -130 -54 -8 -4 -35 -18 -60 -30 -50 -25 -103 -60 -108 -71 -2 -5 -8 -8 -13 -8 -5 0 -45 -26 -88 -57 -198 -144 -217 -157 -266 -183 -11 -6 -33 -19 -50 -30 -16 -10 -52 -30 -80 -45 -27 -14 -57 -29 -65 -34 -8 -4 -24 -13 -35 -19 -11 -6 -69 -36 -130 -67 -111 -57 -130 -67 -162 -85 -10 -5 -40 -21 -68 -35 -303 -156 -403 -298 -342 -485 41 -125 200 -177 437 -142 47 7 103 17 125 23 22 6 58 14 80 18 37 7 77 18 150 43 17 5 44 13 60 18 48 13 98 31 128 46 16 8 36 14 46 14 9 0 26 7 37 15 10 8 27 15 36 15 9 0 29 6 45 14 29 15 82 38 143 64 19 8 42 19 50 24 8 4 22 11 30 14 16 7 205 100 248 123 30 16 107 66 192 125 75 53 194 170 232 231 49 76 61 113 65 198 4 62 1 86 -14 115 -65 128 -126 185 -266 246 -48 20 -166 20 -227 -1z m238 -146 c127 -63 175 -196 115 -317 -36 -72 -164 -199 -273 -271 -262 -174 -815 -402 -1122 -463 -244 -49 -379 -38 -421 34 -36 60 -11 148 57 208 51 44 181 119 416 240 298 152 402 214 628 375 183 129 316 201 402 216 73 13 145 5 198 -22z"/> <path d="M3480 5103 c-25 -9 -49 -17 -55 -19 -5 -2 -17 -8 -25 -13 -8 -5 -35 -19 -60 -31 -25 -12 -58 -30 -75 -41 -16 -10 -39 -23 -50 -28 -11 -5 -37 -21 -58 -35 -21 -14 -40 -26 -44 -26 -3 0 -22 -12 -42 -27 -20 -16 -44 -32 -53 -38 -68 -41 -281 -196 -303 -220 -5 -6 -30 -27 -55 -45 -144 -109 -341 -292 -440 -410 -30 -36 -57 -67 -61 -70 -18 -17 -62 -85 -93 -144 -30 -58 -36 -79 -36 -133 0 -97 48 -163 130 -178 69 -12 221 25 310 77 8 4 21 10 28 13 30 12 40 17 97 49 33 19 83 46 110 60 28 15 64 35 80 46 17 11 39 24 50 30 11 6 34 19 50 30 17 11 37 23 45 27 8 4 42 25 75 48 34 23 67 44 75 48 8 4 29 16 45 27 17 11 39 24 50 30 11 6 29 16 40 23 84 51 103 63 120 75 11 6 25 14 30 16 6 1 26 9 45 17 54 21 300 24 358 5 25 -9 55 -16 68 -16 12 0 35 -7 50 -15 16 -8 38 -15 49 -15 11 -1 31 -7 45 -15 14 -8 37 -14 51 -15 15 0 43 -7 62 -15 21 -9 67 -15 110 -15 70 0 77 2 129 40 32 22 72 64 93 96 36 54 37 59 38 145 0 84 -12 135 -44 189 -5 8 -12 22 -16 30 -11 26 -119 164 -149 191 -116 105 -348 239 -413 239 -10 0 -35 7 -54 15 -50 21 -245 19 -307 -2z m260 -119 c125 -22 266 -88 378 -179 96 -78 149 -144 193 -240 26 -57 30 -78 27 -123 -7 -86 -73 -152 -152 -152 -35 0 -168 29 -271 60 -276 81 -483 71 -658 -33 -21 -12 -169 -101 -330 -198 -332 -201 -448 -265 -562 -309 -103 -39 -160 -43 -186 -11 -25 30 -24 55 5 116 36 77 101 159 237 296 204 206 476 420 769 604 19 12 53 33 76 47 97 61 236 120 309 131 56 8 72 7 165 -9z"/> <path d="M5648 4310 c-37 -3 -73 -11 -80 -17 -6 -7 -19 -13 -28 -13 -9 0 -37 -11 -61 -25 -24 -14 -51 -28 -59 -32 -8 -3 -31 -19 -51 -35 -20 -15 -40 -28 -44 -28 -26 0 -404 -386 -490 -500 -76 -100 -274 -293 -329 -319 -47 -23 -48 -23 -88 -5 -59 27 -93 72 -183 249 -31 61 -65 124 -75 140 -11 17 -23 37 -27 45 -20 45 -149 170 -199 194 -22 10 -52 25 -67 33 -42 22 -272 21 -315 -1 -17 -9 -38 -16 -47 -16 -15 0 -32 -7 -95 -41 -8 -4 -39 -20 -67 -35 -29 -15 -53 -31 -53 -36 0 -4 -5 -8 -11 -8 -39 0 -336 -283 -394 -375 -11 -16 -37 -55 -60 -85 -48 -67 -62 -88 -74 -117 -6 -11 -15 -24 -20 -28 -6 -3 -11 -14 -11 -24 0 -10 -7 -24 -15 -31 -8 -7 -15 -20 -15 -30 0 -10 -7 -23 -15 -30 -8 -7 -15 -23 -15 -35 0 -12 -7 -28 -15 -35 -8 -7 -15 -21 -15 -31 0 -10 -6 -33 -14 -51 -24 -58 -46 -132 -46 -156 0 -13 -7 -48 -16 -78 -12 -42 -14 -88 -11 -216 5 -178 15 -227 62 -302 44 -69 77 -86 169 -86 65 0 86 5 140 31 77 38 145 100 201 184 30 45 44 68 50 85 4 8 11 22 16 30 5 8 12 22 15 30 3 8 10 22 15 30 5 8 12 22 15 30 3 8 10 22 15 30 5 8 20 39 35 68 14 29 52 79 83 110 49 50 66 60 115 71 32 7 73 10 92 6 37 -6 100 -56 115 -89 5 -12 13 -28 18 -36 8 -14 21 -45 51 -130 6 -19 15 -51 19 -70 4 -19 13 -45 19 -57 7 -12 12 -30 12 -40 0 -10 7 -31 15 -47 8 -15 15 -36 15 -46 0 -10 6 -31 14 -47 7 -15 21 -46 31 -68 9 -22 21 -47 26 -55 5 -8 12 -22 16 -30 15 -33 75 -105 111 -131 50 -37 146 -69 206 -69 51 0 136 21 196 49 60 28 183 126 241 192 73 85 149 185 149 197 0 6 3 12 8 14 9 4 52 65 52 74 0 3 12 23 28 43 31 41 49 69 59 91 18 41 187 251 225 281 24 18 45 36 48 39 21 22 79 40 130 40 112 0 171 -56 214 -201 13 -46 16 -109 16 -375 0 -327 10 -436 46 -522 8 -18 14 -39 14 -46 0 -18 88 -107 125 -127 60 -32 244 -32 335 1 91 32 228 100 277 136 17 13 35 24 39 24 15 0 130 103 180 162 26 31 59 93 73 137 23 73 8 155 -45 236 -43 66 -63 80 -206 145 -47 21 -101 73 -119 114 -5 11 -13 28 -18 36 -42 72 -58 253 -66 740 -3 198 -10 360 -16 380 -6 19 -14 58 -19 85 -8 54 -24 103 -46 148 -8 16 -14 33 -14 37 0 44 -169 210 -213 210 -8 0 -27 6 -43 14 -34 16 -141 24 -236 16z m199 -140 c136 -48 212 -162 249 -373 12 -68 18 -199 24 -502 8 -418 14 -491 54 -604 43 -119 140 -230 257 -292 162 -87 180 -211 50 -352 -124 -134 -343 -244 -505 -254 -81 -5 -93 -4 -133 18 -35 19 -50 37 -74 84 -40 82 -49 169 -49 478 -1 304 -12 395 -65 504 -39 79 -97 138 -172 174 -68 33 -164 30 -245 -8 -127 -60 -222 -162 -406 -436 -70 -104 -134 -199 -142 -210 -31 -46 -142 -176 -174 -204 -47 -42 -136 -91 -197 -109 -94 -28 -196 1 -263 76 -51 57 -86 136 -163 370 -35 107 -77 217 -93 245 -34 60 -96 125 -152 163 -37 24 -51 27 -122 27 -103 0 -155 -24 -246 -114 -65 -64 -123 -153 -219 -335 -78 -148 -179 -236 -269 -236 -50 0 -95 35 -114 88 -17 50 -17 337 1 412 47 199 129 385 247 561 97 144 305 353 429 430 169 105 346 143 476 102 77 -24 198 -148 254 -258 143 -284 249 -395 375 -395 65 0 134 34 218 108 58 50 291 305 385 420 100 123 310 307 430 377 107 62 254 80 354 45z"/> </g> </svg> 