 <svg  version="1.0" xmlns="http://www.w3.org/2000/svg"  width="300.000000pt" height="300.000000pt" viewBox="0 0 300.000000 300.000000"  preserveAspectRatio="xMidYMid meet">  <g transform="translate(0.000000,300.000000) scale(0.100000,-0.100000)" fill="#ffffff" stroke="none"> <path d="M1240 2421 c-18 -34 -11 -68 35 -191 46 -125 58 -179 74 -342 17 -166 51 -206 172 -194 135 12 224 60 260 140 23 50 25 159 5 208 -49 117 -239 297 -391 369 -73 35 -139 39 -155 10z m339 -378 c26 -32 35 -65 27 -98 -5 -20 -13 -25 -36 -25 -35 0 -45 18 -56 100 -6 49 -6 50 19 50 16 0 34 -10 46 -27z"/> <path d="M2121 1925 c-18 -8 -69 -40 -112 -70 -44 -31 -141 -88 -217 -128 -141 -75 -182 -112 -182 -162 0 -35 37 -73 77 -81 106 -20 441 105 558 208 76 67 93 123 56 184 -35 57 -112 78 -180 49z"/> <path d="M1115 1681 c-75 -36 -206 -129 -300 -215 -117 -106 -160 -189 -119 -230 38 -38 116 -10 318 114 142 87 177 95 297 61 98 -28 115 -27 150 8 57 58 24 158 -75 229 -95 69 -177 78 -271 33z"/> <path d="M1825 1418 c-52 -27 -94 -65 -205 -187 -50 -56 -100 -106 -111 -111 -29 -16 -52 2 -88 69 -60 114 -106 151 -184 151 -136 0 -323 -188 -372 -375 -29 -113 -13 -225 35 -240 63 -20 125 25 176 128 37 74 61 97 100 97 42 0 55 -19 95 -137 44 -133 89 -175 173 -159 57 11 109 59 183 167 103 151 134 178 189 165 41 -11 54 -59 54 -193 0 -131 9 -175 42 -210 46 -49 177 -19 266 62 80 72 75 150 -13 195 -68 35 -75 60 -84 278 -8 214 -23 265 -83 302 -44 27 -120 26 -173 -2z"/> </g> </svg> 