<?xml version="1.0" standalone="no"?>
<!DOCTYPE svg PUBLIC "-//W3C//DTD SVG 20010904//EN"
 "http://www.w3.org/TR/2001/REC-SVG-20010904/DTD/svg10.dtd">
<svg version="1.0" xmlns="http://www.w3.org/2000/svg"
 width="300.000000pt" height="299.000000pt" viewBox="0 0 300.000000 299.000000"
 preserveAspectRatio="xMidYMid meet">
<metadata>
Created by potrace 1.10, written by Peter Selinger 2001-2011
</metadata>
<g transform="translate(0.000000,299.000000) scale(0.100000,-0.100000)"
fill="#000000" stroke="none">
<path d="M1710 2221 c-19 -10 -42 -29 -52 -42 -25 -34 -36 -112 -27 -195 19
-162 29 -307 29 -419 1 -147 18 -197 76 -221 20 -9 47 -13 59 -10 91 23 157
248 159 546 1 135 -2 164 -21 226 -30 94 -72 134 -141 134 -27 0 -62 -8 -82
-19z"/>
<path d="M2425 2145 c-28 -28 -28 -24 -29 -265 -1 -164 -3 -183 -33 -295 -39
-146 -47 -209 -30 -254 16 -46 50 -69 137 -92 197 -51 343 5 399 155 40 108
25 216 -54 381 -95 199 -269 395 -350 395 -9 0 -27 -11 -40 -25z m220 -507
c48 -69 34 -168 -23 -168 -45 0 -56 20 -48 92 11 97 37 124 71 76z"/>
<path d="M1335 2001 c-83 -21 -161 -86 -352 -294 -80 -86 -105 -98 -137 -68
-14 13 -41 54 -61 92 -66 126 -109 160 -201 160 -170 0 -396 -227 -449 -452
-30 -127 -14 -229 40 -265 22 -14 32 -15 65 -5 58 17 91 51 140 141 49 91 88
130 130 130 40 0 64 -35 96 -138 50 -166 95 -222 177 -222 89 0 154 53 276
229 47 68 100 133 116 143 43 26 87 23 116 -8 23 -25 24 -33 29 -202 5 -145 9
-184 25 -216 33 -69 113 -82 221 -35 194 83 244 227 105 303 -80 43 -84 56
-92 306 -7 226 -17 282 -62 341 -34 47 -119 75 -182 60z"/>
<path d="M2156 1946 c-92 -97 -226 -479 -228 -651 -3 -145 139 -290 296 -302
77 -7 116 11 141 62 22 49 15 75 -47 160 -100 137 -104 162 -57 395 39 190 44
317 15 349 -30 34 -82 28 -120 -13z"/>
</g>
</svg>
