<?xml version="1.0" standalone="no"?>
<!DOCTYPE svg PUBLIC "-//W3C//DTD SVG 20010904//EN"
 "http://www.w3.org/TR/2001/REC-SVG-20010904/DTD/svg10.dtd">
<svg version="1.0" xmlns="http://www.w3.org/2000/svg"
 width="300.000000pt" height="300.000000pt" viewBox="0 0 300.000000 300.000000"
 preserveAspectRatio="xMidYMid meet">
<metadata>
Created by potrace 1.10, written by Peter Selinger 2001-2011
</metadata>
<g transform="translate(0.000000,300.000000) scale(0.100000,-0.100000)"
fill="#ffffff" stroke="none">
<path d="M1720 2228 c-64 -33 -84 -66 -88 -147 -2 -37 1 -101 8 -142 7 -41 15
-171 19 -289 8 -237 15 -266 71 -295 48 -25 75 -19 113 26 67 78 107 272 107
520 0 104 -5 161 -16 200 -40 137 -111 179 -214 127z m134 -53 c46 -50 60
-134 53 -332 -7 -198 -24 -300 -65 -382 -31 -63 -48 -77 -86 -67 -45 11 -56
55 -57 223 0 81 -4 184 -9 228 -29 245 -25 294 28 335 37 30 106 27 136 -5z"/>
<path d="M2434 2162 c-29 -19 -34 -56 -34 -240 0 -183 -1 -193 -35 -328 -41
-164 -46 -248 -15 -287 32 -40 120 -69 230 -74 84 -5 102 -3 148 17 133 57
192 217 142 381 -58 193 -227 448 -341 518 -34 21 -75 27 -95 13z m106 -71
c134 -106 309 -428 310 -572 0 -59 -29 -138 -66 -179 -51 -56 -105 -74 -206
-67 -101 6 -153 21 -184 52 -34 34 -31 100 11 269 33 133 35 147 35 318 0 107
4 187 11 199 13 25 39 19 89 -20z"/>
<path d="M2572 1677 c-25 -27 -47 -124 -37 -167 4 -16 20 -41 37 -55 39 -33
72 -27 111 17 44 52 35 142 -21 201 -32 33 -61 35 -90 4z m65 -29 c11 -13 24
-34 28 -47 27 -90 -28 -168 -80 -111 -14 16 -16 29 -10 76 8 65 20 104 33 104
5 0 18 -10 29 -22z"/>
<path d="M1280 1985 c-44 -20 -88 -59 -215 -190 -129 -133 -166 -165 -187
-165 -31 0 -60 34 -102 117 -100 200 -262 202 -456 5 -130 -132 -194 -269
-195 -417 0 -118 25 -165 90 -165 61 0 104 40 168 154 49 89 81 119 128 119
44 0 63 -27 98 -137 53 -172 89 -216 172 -216 26 0 59 4 74 10 44 17 122 99
194 204 116 171 183 213 242 150 23 -24 24 -33 30 -205 9 -240 29 -278 140
-279 61 0 193 65 242 119 71 79 57 161 -36 207 -79 41 -88 72 -96 333 -6 214
-7 217 -36 276 -24 49 -39 64 -75 83 -58 29 -112 28 -180 -3z m178 -42 c13 -8
33 -36 45 -61 18 -41 22 -74 28 -257 9 -267 20 -303 111 -361 56 -36 73 -67
58 -104 -33 -79 -197 -166 -275 -146 -45 11 -58 56 -62 216 -5 187 -8 204 -44
245 -41 46 -87 55 -144 27 -47 -23 -80 -60 -182 -206 -80 -115 -142 -166 -202
-166 -66 0 -96 37 -141 175 -48 148 -78 181 -156 172 -57 -6 -92 -38 -144
-132 -87 -157 -173 -177 -187 -44 -14 145 91 360 231 471 72 57 121 78 188 78
50 0 62 -4 93 -32 20 -17 54 -64 76 -104 65 -118 115 -147 184 -104 17 11 77
71 133 134 110 122 189 190 249 212 43 15 106 10 141 -13z"/>
<path d="M2187 1974 c-64 -35 -158 -232 -218 -457 -40 -151 -48 -252 -24 -313
35 -92 164 -191 272 -209 84 -13 153 33 153 102 0 40 -9 59 -61 128 -44 60
-74 118 -82 163 -4 20 6 100 28 213 23 117 35 209 35 264 0 78 -2 85 -26 104
-31 25 -40 25 -77 5z m53 -49 c18 -22 7 -168 -25 -325 -42 -211 -33 -272 64
-399 47 -62 55 -83 47 -116 -8 -32 -39 -48 -92 -47 -86 2 -203 83 -245 168
-19 40 -21 56 -16 123 15 180 143 535 213 590 32 25 38 26 54 6z"/>
</g>
</svg>
